<svg xmlns="http://www.w3.org/2000/svg" viewBox="0 0 604.65 310.16">
    <g style="isolation:isolate">
        <path
            d="M487.18,250.3c28.87,25.49,101.19,10.63,112.18-32.32,7.09-27.71,9.51-63.25-8.63-87.4-19.4-25.83-50.21-21.16-78.4-18.45,2.23-26.66,1.74-82-68.37-107.23C387.12-15.58,336.85,33.09,325.54,59.15c-35.9-37.3-130.16-25.28-148.36,29.28C115.72,41.05-.27,82.63,0,181.69.16,241.52,45.07,288.13,110.54,291c17.28.77,35.88-.12,52.17-6.35,3.44-1.31,30.64-15.27,28.15-18.34,0,0,10.24,16,32.12,29.21C263.38,319.9,338.4,315.17,374.29,271,445.73,316.4,487.18,250.3,487.18,250.3Z"
            fill="#f1f2f2" />
        <path
            d="M31.89,103.31C11.88,165.84,20.25,204.05,51,229.73c33.27,27.77,86,35.69,126.56,16.48,5-2.34,17.23-12.19,20-12.52S209.66,249,218.9,257.3c14.31,12.77,33.85,21.75,53.64,24.73,29.79,4.5,59.68-7.5,82.38-26.43,3.37-2.8,6.12-6.16,9.25-9.21,3.32-3.25,5.87-5.71,10.72-3.76,5.95,2.39,11.29,6.23,17.3,8.68,11.23,4.57,22.78,8.71,35.13,7a55.55,55.55,0,0,0,20.94-7.5c11.44-6.84,26.39-28.25,40.8-23.8,14.2,4.38,27,16.83,42.35,16.1,54.44-2.57,79.46-54,65.15-103,11.63,23.36,9,53.64,2.8,77.91-11,43-83.31,57.81-112.18,32.32,0,0-41.45,66.1-112.89,20.65C338.4,315.17,263.38,319.9,223,295.56c-21.88-13.19-32.11-29.2-32.12-29.21,2.49,3.07-24.71,17-28.15,18.34-16.29,6.23-34.89,7.12-52.17,6.35C45.07,288.13.16,241.52,0,181.69-.1,148.84,12.64,122.37,31.89,103.31Z"
            fill="#d2e6f1" style="mix-blend-mode:multiply" />
    </g>
</svg>