<svg xmlns="http://www.w3.org/2000/svg" viewBox="0 0 292.54 227.19"><g style="isolation:isolate"><path d="M173.73,34.83A60,60,0,1,0,253.42,5.57,60,60,0,0,0,173.73,34.83Z" fill="#f7ce6d"/><path d="M274.16,48.13A43.52,43.52,0,0,0,261.8,33a70.92,70.92,0,0,0-10-6.57c-11.5-6.23-24.71-11.78-38-11.5a28.91,28.91,0,0,0-10.05,2c-1.67.68-7.37,4.75-9.17,3.22-1.32-1.13-.42-3.69,1.65-5.43,5-4.23,16.6-8.46,21.4-9.59a43,43,0,0,1,8.54-1.06,58.07,58.07,0,0,1,10.94.68,59.13,59.13,0,0,1,14.71,4.47c14.13,6.54,25.86,19.62,29.79,34.8.85,3.29,3.46,14.55,2.7,19.05-.35,2.11-1.62,6.43-3.7,2.89-2.26-3.84-3.1-8.28-4.34-12.5A36.94,36.94,0,0,0,274.16,48.13Z" fill="#c6c5b7" opacity="0.4" style="mix-blend-mode:screen"/><path d="M.38,105.84c-3.56,38.24,17.93,77.32,57.38,100.83,23.62,14.08,71.72,33.76,106.17,7.91,20.86-15.64,24-46.2,39.44-70.5a69.18,69.18,0,0,1,22-22.28c.52-.32,1-.65,1.56-1l1.35-.77c.45-.27.91-.51,1.38-.76l1.42-.73,1.46-.71c.5-.24,1-.47,1.5-.69l.17-.08c1.46-.65,3-1.27,4.54-1.85L169.45,47C166,83.59,160,99.52,128.23,99.13,91.7,98.67,72.46,67.5,77.12,34.47c1.65-11.65,5.52-20.64-8.3-26.75-13.54-6-29.63,8.14-39.28,22.72C17.18,49.11,2.52,82.82.38,105.84Z" fill="#f7ce6d"/><path d="M211.94,95.7c1.1,6.64.35,13.53-1.57,20.6-2.49,9-6.64,18.35-7,27.78a69.18,69.18,0,0,1,22-22.28c.52-.32,1-.65,1.56-1l1.35-.77c.45-.27.91-.51,1.38-.76s.94-.5,1.42-.73,1-.48,1.46-.71,1-.47,1.5-.69l.17-.08,1.24-.54A126.9,126.9,0,0,1,211.94,95.7Z" fill="#ece8e5" style="mix-blend-mode:multiply"/><path d="M15.82,148.86c11.38,16.87,23.9,27.64,41.54,37.75,18.73,10.73,44.19,17.17,65.74,19.48a118,118,0,0,0,32.61-.56c8.54-1.47,15.61-6.2,23.42-9.43-3.78,7-8.46,13.42-15.2,18.48-34.45,25.86-82.55,6.18-106.17-7.91C19.25,183.73-2.14,146,.18,108.58,2.84,125.73,8.19,137.55,15.82,148.86Z" fill="#ece8e5" style="mix-blend-mode:multiply"/><path d="M292.54,120.11c-18.09,18.64-56.36,23.83-77.86-14.73-4.1-7.36-6.38-18.89-6.88-25.45,12,12.77,33.12,17.91,53.48,13.74C274.28,122.93,292.54,120.11,292.54,120.11Z" fill="#f4805d"/><path d="M267.55,113.57c-4.34-3.7-8.12-8.81-13.61-11.08-5.7-2.37-11.9-3.18-17.59-5.63a82.3,82.3,0,0,1-10.48-5.41,66,66,0,0,0,35.41,2.22c13,29.26,31.26,26.44,31.26,26.44a43.74,43.74,0,0,1-4.21,3.8C280.47,123.81,273.48,118.61,267.55,113.57Z" fill="#b9a17e" opacity="0.3" style="mix-blend-mode:screen"/><path d="M215,86c.53,5.86,1.45,11.89,4.82,16.82,5.08,7.38,13.07,14.1,20.62,18.82,11.47,7.18,25.74,10.58,39.06,7.84-19.74,9.59-47.63,6.73-64.81-24.09-4.1-7.36-6.38-18.89-6.88-25.45A41.72,41.72,0,0,0,215,86Z" fill="#ece8e5" style="mix-blend-mode:multiply"/><path d="M214.91,48.79c-2.78,6-1.55,12.53,2.75,14.52S227.73,62,230.52,56s1.56-12.54-2.74-14.53S217.71,42.76,214.91,48.79Z" fill="#544847"/><path d="M219.93,57c3.23,2.15,6.91,2.53,9.83.49-3,5.1-8.15,7.7-12.1,5.87-4.11-1.91-5.41-7.93-3.08-13.72A15,15,0,0,0,219.93,57Z" fill="#dad7d4" style="mix-blend-mode:multiply"/><path d="M220.45,43a3,3,0,1,0,5.44,2.53,3,3,0,0,0-1.44-4A3,3,0,0,0,220.45,43Z" fill="#e7e3de"/><path d="M222.68,59.8a1.5,1.5,0,1,0,2.73,1.26,1.49,1.49,0,0,0-.73-2A1.52,1.52,0,0,0,222.68,59.8Z" fill="#e7e3de"/><path d="M59.28,10.84c-6.9,1.34-8,7.65-5.37,10.59,4.52,5,12,3.64,11.72,14.36-.08,3.06-1.53,10.43,1.42,12.46,4.44,3.06,5.08-5.17,5.26-7.77.56-7.9,3.34-18.22-1-25.54C68.69,10.56,64.07,9.9,59.28,10.84Z" fill="#c6c5b7" opacity="0.4" style="mix-blend-mode:screen"/></g></svg>