<svg id="Layer_1" xmlns="http://www.w3.org/2000/svg" viewBox="0 0 410.27 512">
    <path
        d="M193.49,440.69A71.32,71.32,0,0,1,122.17,512h0a71.31,71.31,0,0,1-71.31-71.31V71.31A71.31,71.31,0,0,1,122.17,0h0a71.32,71.32,0,0,1,71.32,71.31Z"
        transform="translate(-50.86)" fill="#ed84a6" />
    <path
        d="M461.13,440.69A71.31,71.31,0,0,1,389.82,512h0a71.32,71.32,0,0,1-71.32-71.31V71.31A71.33,71.33,0,0,1,389.82,0h0a71.31,71.31,0,0,1,71.31,71.31Z"
        transform="translate(-50.86)" fill="#ed84a6" />
</svg>