<svg xmlns="http://www.w3.org/2000/svg" viewBox="0 0 221.47 311.67"><g style="isolation:isolate"><path d="M85.63,304.3c10.92,11,27.5,7.6,40.7,3.31,19-6.17,37.34-14.12,55.29-22.81,14.25-6.89,32.93-12,38.32-29,6.37-20.09-8.69-41-18.33-57-10-16.68-21.08-32.73-32.08-48.78-7-10.28-13.6-20.92-18.4-32.44s-6.86-23.95-10.71-35.88C137.05,71.3,124.2,55,113.92,49.76a20,20,0,0,0-15.8-.53L48,70.85C37,75.57,29,78,21.79,87.8s-12.38,34.43,1.09,53a125.75,125.75,0,0,1,15.68,30c7.7,20.93,8.42,36.28,15.85,57.3,2.75,7.81,8,22.64,10.48,30.52C69.89,274.18,73.68,292.29,85.63,304.3Z" fill="#aedbe9"/><path d="M63.81,226.85a201.94,201.94,0,0,1-6.44-23.34,20.85,20.85,0,0,1,3.74-4c7.5-6.06,14.21-4.41,22.63-1.29,16.59,6.17,34.4,10.07,52,5.48,12.68-3.33,32.53-13,41.48-26.35,5.27,7.87,10.44,15.82,15.31,23.93,8.44,14,21.6,32.29,16,49.85-4.72,14.84-21.06,19.31-33.51,25.34a385.12,385.12,0,0,1-48.32,19.94c-11.54,3.74-26,6.68-35.59-2.9C80.66,283,77.34,267.14,73,253.53,70.76,246.64,66.22,233.67,63.81,226.85Z" fill="#e7e3de"/><path d="M108.16,113.43a157.17,157.17,0,0,0,18-8.31,287.49,287.49,0,0,0,20.73,50.58c9,17.27,24.08,33.18,35,49.39,5.43,8.07,26.78,50.19,26.91,50.41-3.61,5-12.58,10.45-21.9,14.47-6.11-15.09-22.17-40.91-26.82-49.7-10.51-19.9-25.21-35.84-33.49-56.71C119.84,146.59,114.15,130.58,108.16,113.43Z" fill="#a2b9c0" opacity="0.3" style="mix-blend-mode:screen"/><path d="M100.71,90.76c6.67-2.22,12.27-6.58,18.91-10,1.5,4.47,2.83,9,4.13,13.54A94.63,94.63,0,0,1,105,103.7c-.45-1.29-.91-2.59-1.37-3.89C102.64,96.93,101.69,93.88,100.71,90.76Z" fill="#a2b9c0" opacity="0.3" style="mix-blend-mode:screen"/><path d="M103.75,84.27c-12,6.13-23.86,10.19-35.7,15.38a318.94,318.94,0,0,1-38.41,14.24c-5.07,1.47-9.45,3.11-15,2.49-.56-11.85,3-22.82,7.18-28.58C29,78,37,75.57,48,70.85L98.12,49.23a20,20,0,0,1,15.8.53c5.47,2.76,11.64,8.67,16.74,15.16C124.35,74.5,113.64,79.22,103.75,84.27Z" fill="#d8e3e5" style="mix-blend-mode:multiply"/><path d="M85.26,120.74c11-5.27,28.52-15,37.4-19.85a108,108,0,0,0,19.6-13c.73,2.64,1.43,5.29,2.1,7.93C131.58,102.59,99.05,119.42,85.26,120.74Z" fill="#d8e3e5" style="mix-blend-mode:multiply"/><path d="M64.89,258.61c-2.53-7.88-7.73-22.71-10.48-30.52-7.43-21-8.15-36.37-15.85-57.3a125.75,125.75,0,0,0-15.68-30c-13.47-18.59-8.18-43.28-1.09-53l.3-.37c-1.16,11-3.36,24.38-1.18,35.24,2.79,14,12.29,21.85,18.71,34.5,12.26,24.13,16.55,49.11,26.67,76.75,7.2,19.64,10.1,44,24.81,59.55,7.16,7.56,23.56,14.55,36.41,13.75l-1.18.39c-13.2,4.29-29.78,7.65-40.7-3.31C73.68,292.29,69.89,274.18,64.89,258.61Z" fill="#dce7ed" style="mix-blend-mode:multiply"/><path d="M23.65,68.32c5.94-3.59,11.78-7,17.7-10.07a.38.38,0,0,0,0-.1C37.88,44.78,23.43,38.78,18.19,26.62,9.11,5.56,38.55-6.11,49.92,3.29c11,9.13,8.67,22.19,9.32,32.44.31,4.81,2.51,8.68,4.84,12.3q3-1.11,6.17-2.11C79.42,43,84,41.13,95.87,38.73c3.4-.68,14.34-4,14.46.9.12,5.07-11.85,8.87-15.42,10.26-5.38,2.1-10.88,4.82-16.55,6a50.75,50.75,0,0,0-8.71,2.78,11.86,11.86,0,0,1,.29,3.17c-.29,6.12-14.46,14-22.47,9.57a7.23,7.23,0,0,1-1.35-1,170.38,170.38,0,0,1-18.07,7.85C22,80.51,12.72,83.54,6.68,85.65,4.84,79.12,19,71.13,23.65,68.32Z" fill="#f5cb98"/><path d="M11,78.67c-1.08.68-2.15,1.36-3.15,2.09,3.34-5.19,12.32-10.31,15.83-12.44,5.94-3.59,11.78-7,17.7-10.07a.38.38,0,0,0,0-.1C37.88,44.78,23.43,38.78,18.19,26.62c-3.43-8-1.35-14.59,3.18-19.24-6.41,14.79,3.11,25.38,14,34,12.79,10.21,13.11,17,5.64,21.13-8.21,4.52-14.61,6.94-22.58,11.26C15.83,75.29,13.5,77.06,11,78.67Z" fill="#f5ecd6" style="mix-blend-mode:multiply"/><path d="M55,32.68c.41-.45.51-1.37.19-2.87-.78-3.81-1.7-7.6-2.63-11.38C51.4,14,49.64,8.21,45.43,5.71a15.49,15.49,0,0,0-8.94-1.59c-5.46.64-12.27,6.55-8,12.2,3.26,4.37,7.32,1.56,12.48,4,3.81,1.83,5.45,7.11,7.53,9.36C50.05,31.46,52.89,35,55,32.68Z" fill="#c0c3bb" opacity="0.3" style="mix-blend-mode:screen"/><path d="M2.64,100.64l.76,1.74c3.64,8.48,8.57,14.54,18,10.72l.45-.19L122.41,69.59a6.18,6.18,0,0,0,.73-.36c8.91-4.23,6.94-11.51,3.33-19.89l-.76-1.74c-3.66-8.48-7.65-15-17.13-11.1l-.38.15L7.6,80C-2.06,84.23-1,92.07,2.64,100.64Z" fill="#e1706c"/><path d="M115.59,72.52l6.82-2.93a6.18,6.18,0,0,0,.73-.36A183.27,183.27,0,0,0,108.58,36.5l-.38.15L101,39.76A174.6,174.6,0,0,1,115.59,72.52Z" fill="#e28179"/><path d="M97.47,80.33,105,77.08A185.24,185.24,0,0,0,90.45,44.3l-7.6,3.28A175.48,175.48,0,0,1,97.47,80.33Z" fill="#e28179"/><path d="M79.25,88.18l7.53-3.24C82.84,74.36,77,61.89,72.14,52.2l-7.55,3.25C69.44,65.15,75.37,77.73,79.25,88.18Z" fill="#e28179"/><path d="M57.39,95.8l.66,1.52,7.53-3.24L65,92.59c-3.77-8.89-8.85-20.82-13.83-31.34l-7.55,3.26C48.53,75,53.62,86.9,57.39,95.8Z" fill="#e28179"/><path d="M39.8,105.19l7.53-3.25c-5.12-11.19-10.49-23.32-13.93-33l-7.54,3.25C29.38,82,34.69,94.08,39.8,105.19Z" fill="#e28179"/><path d="M21.42,113.1l.45-.19L29,109.85A176.44,176.44,0,0,1,15.2,76.74L7.6,80A183.88,183.88,0,0,0,21.42,113.1Z" fill="#e28179"/><path d="M35.17,141.58A78.22,78.22,0,0,1,47,136.09l-.9-2.68a81.07,81.07,0,0,0-12.4,5.74Z" fill="#7cbddc"/><path d="M40.06,152.92a78,78,0,0,1,11.84-5.49L51,144.75a79.86,79.86,0,0,0-12.41,5.74Z" fill="#7cbddc"/><path d="M44.94,164.26c1.17-.69,4.2-2.3,7.38-3.71,1.52-.68,3.08-1.31,4.47-1.77l-.89-2.69a81.54,81.54,0,0,0-12.4,5.74Z" fill="#7cbddc"/><path d="M63.1,183.34c1.33-.57,2.64-1.18,3.77-1.79l-1.34-2.49a77.38,77.38,0,0,1-12.12,4.84l.77,2.73A88.35,88.35,0,0,0,63.1,183.34Z" fill="#7cbddc"/><path d="M58.22,172c1.33-.57,2.64-1.18,3.77-1.79l-1.35-2.49a77.73,77.73,0,0,1-12.11,4.84l.76,2.72A86.73,86.73,0,0,0,58.22,172Z" fill="#7cbddc"/></g></svg>