<svg xmlns="http://www.w3.org/2000/svg" viewBox="0 0 279.49 322.59"><g style="isolation:isolate"><path d="M104.27,191.45a5.65,5.65,0,0,1,.61-.8c15.54-15.57,16.37-23.58,16.37-23.58-3-4.3-23.9,2-28.06-.73-6.28-4.07-6-15.77-6.89-22.32C82.85,118.7,85.85,92,98,69.31c11.32-21.27,30.67-33.37,50.5-45.7.78-.49,1.48-2.57.75-4.33s-5.12-3.46-7.6-3.77c-4.67-.61-9.6-.32-14.31-.42-2.63-.05-5.26,0-7.88.18a141.52,141.52,0,0,0-28.07,4.81q-5.49,1.49-10.8,3.49C16.23,47.84-20.48,128.8,12.1,215.15S125.88,339,196.84,315.87c32.94-10.75,64.1-31,80.75-66.38,1-2.07,2.68-7,1.52-8.16-1.43-1.48-4.89.12-6.47.8-3.09,1.32-4.77,2-7.95,3.05-23.15,7.93-46.11,15.23-70.89,13.26-22.6-1.79-43.62-11-62-24-11.67-8.3-16.39-15.37-23.39-27.85C105.42,201.18,100.76,196.47,104.27,191.45Z" fill="#f7ce6d"/><path d="M234.62,287.53c-29.74,13.68-48.89,21.54-82.17,20.92-15.6-.29-40.15-4.8-54.6-11-13.13-5.62-25-14.17-35.9-23.33a273.81,273.81,0,0,1-46.28-50.19C50.31,304,128.33,338.23,196.84,315.87c29.75-9.71,58-27.24,75.47-56.57C260.64,268.14,247.8,281.47,234.62,287.53Z" fill="#e5e2e2" style="mix-blend-mode:multiply"/><path d="M80.55,221.58c.27,3.5,4.7,7.16,7.55,8.25a12.51,12.51,0,0,0,16.58-7.72" fill="none" stroke="#e6a12d" stroke-linecap="round" stroke-linejoin="round" stroke-width="4.05"/><path d="M55.4,162c7,5.73,20.2,3.91,26.66-4.39" fill="none" stroke="#e6a12d" stroke-linecap="round" stroke-linejoin="round" stroke-width="4.05"/><path d="M165.9,84.56c-2.39,1-7.32-.77-8.2-2.43-5.26-9.78-20.08-59.54-57.29-12.93-2.47,3.09-4.17,7.51-8.16,4.85C82.9,67.8,71,59.05,63.76,52c-4.85-4.74-8.8-9.4-14.64-12.62a1.51,1.51,0,0,1-.36-.18,9.7,9.7,0,0,0-1-.48,2.69,2.69,0,0,0-.51-.25,2.38,2.38,0,0,0-.28-.14c0-.12,0-.22.08-.34a33.21,33.21,0,0,1,3.12-5.29s0-.06.08-.1c.59-.85,1.09-1.55,1.38-1.92,1.33-1.8,2.63-3.51,3.9-5.1a2.55,2.55,0,0,1,.27-.32c.33-.45.66-.86,1-1.28.67-.83,1.34-1.62,2-2.41.34-.39.66-.77,1-1.16,1-1.11,2-2.2,3-3.23A57,57,0,0,1,88.34,1.94C94,.22,100.13.08,106,0c6.88-.1,13.56.16,20.06,2.65S138.29,9,143.77,13.08c.22.16.43.32.65.5C162.3,27.18,167.16,50.37,168.5,66,169.08,72.84,171.12,82.32,165.9,84.56Z" fill="#e16c58"/><path d="M149.06,18c-10.87-7.58-22.37-12.31-32.7-13.25C87.69,2.12,64.41,20.32,51.24,40.47c-.22-.1-1.16-.59-2.12-1.08a1.51,1.51,0,0,1-.36-.18,9.7,9.7,0,0,0-1-.48,2.69,2.69,0,0,0-.51-.25,2.38,2.38,0,0,0-.28-.14c0-.12,0-.22.08-.34a16.34,16.34,0,0,1,3.12-5.29s0-.06.08-.1c1.11-1.41,2.25-2.75,3-3.86s1.46-2.11,2.26-3.16a2.55,2.55,0,0,1,.27-.32c.33-.45.66-.86,1-1.28.67-.83,1.34-1.62,2-2.41.34-.39.66-.77,1-1.16,1-1.11,2-2.2,3-3.23A57,57,0,0,1,88.34,1.94C94,.22,100.13.08,106,0c6.88-.1,13.56.16,20.06,2.65S138.29,9,143.77,13.08c.22.16.43.32.65.5A46.38,46.38,0,0,1,149.06,18Z" fill="#927877" opacity="0.3" style="mix-blend-mode:screen"/><path d="M49.05,34.09a12.17,12.17,0,0,0-2,4.26C54,41.53,58.33,46.72,63.76,52c7.23,7,19.15,15.78,28.49,22,3.2,2.13,4.79-.39,6.68-3C85.49,56.22,67,42.92,49.05,34.09Z" fill="#e5e2e2" style="mix-blend-mode:multiply"/><path d="M91.29,89.57c-1.19-.76-2.3-1.48-3.38-2.19s-2.31-1.54-3.39-2.26c-2.09-1.4-4-2.74-5.83-4.06l-.51-.37-2.77-2-.5-.37C73,76.88,71,75.43,69,73.9l-3.26-2.45c-1.94-1.49-4-3-6.26-4.73-.28-.24-.57-.46-.87-.67l-.38-.28c-.58-.44-1.27-.93-2-1.46-.28-.21-.59-.41-.88-.63-1.66-1.16-3.61-2.51-5.58-3.91-1.11-.77-2.21-1.56-3.29-2.37-1.73-1.24-3.4-2.5-4.85-3.7-1.18-1-2.23-1.92-3.08-2.77a10.75,10.75,0,0,1-1-1.12c-2.29-2.83,2.71-8.08,5.36-11.58.94-1.26,2.64-1.44,4.75-.9a21.18,21.18,0,0,1,4,1.57A56.92,56.92,0,0,1,57,42c1.12.73,2.25,1.49,3.38,2.31,2.17,1.55,4.33,3.17,6.3,4.72.32.25.62.48.92.73L69,50.9c.27.21.54.43.79.65,2.46,2,4.4,3.57,5.39,4.28l.8.59,3.27,2.38c1.9,1.42,3.88,2.93,5.88,4.46.16.14.34.28.51.41.91.72,1.79,1.4,2.67,2.11.19.13.37.29.55.43,2.34,1.9,4.57,3.78,6.54,5.55,1.1,1,2.11,1.95,3,2.84.4.37.73.75,1.09,1.1C102.81,79.33,94.22,87.59,91.29,89.57Z" fill="#e16c58"/><g style="mix-blend-mode:multiply"><path d="M48.81,59.07c-1.09-.77-2.2-1.56-3.28-2.37A106,106,0,0,1,56,41.29c1.11.74,2.24,1.5,3.37,2.31A100.42,100.42,0,0,0,48.81,59.07Z" fill="#e5e2e2"/></g><g style="mix-blend-mode:multiply"><path d="M58.64,66.05l-.38-.28c-.58-.44-1.27-.93-2-1.46-.28-.21-.59-.41-.88-.63A104.08,104.08,0,0,1,65.72,48.5c.61.41,1.23.82,1.86,1.26L69,50.9A97.12,97.12,0,0,0,58.64,66.05Z" fill="#e5e2e2"/></g><g style="mix-blend-mode:multiply"><path d="M78.18,80.69l-2.77-2-.5-.37a106.28,106.28,0,0,1,10.24-15c.16.14.34.28.51.41.91.72,1.79,1.4,2.67,2.11A99.92,99.92,0,0,0,78.18,80.69Z" fill="#e5e2e2"/></g><path d="M41.63,53.7c-1.18-1-2.23-1.92-3.08-2.77a126.77,126.77,0,0,1,9.13-13.6,21.18,21.18,0,0,1,4,1.57A111,111,0,0,0,41.63,53.7Z" fill="#f4805d"/><path d="M49.77,59.77c-1.11-.77-2.21-1.56-3.29-2.37A107,107,0,0,1,57,42c1.12.73,2.25,1.49,3.38,2.31A97.7,97.7,0,0,0,49.77,59.77Z" fill="#f4805d"/><path d="M59.51,66.72c-.4-.32-.82-.64-1.25-1s-1.27-.93-2-1.46l0,0c3.14-4.88,7.34-11.4,10.39-15.23,1.11.87,2.18,1.72,3.15,2.52-2.92,3.65-7,10.1-10.12,14.89Z" fill="#f4805d"/><path d="M65.77,71.45l.07-.08C68.9,66.61,73,60.3,76,56.42l3.27,2.38c-2.91,3.67-7,10-10,14.76L69,73.9Z" fill="#f4805d"/><path d="M78.69,81.06c-1.12-.81-2.2-1.59-3.28-2.39,3.3-4.53,7.72-11.08,10.25-15,1.1.85,2.16,1.7,3.22,2.54C86.09,70.46,81.82,76.73,78.69,81.06Z" fill="#f4805d"/><path d="M98.39,74.6c-2.82,3.85-7.12,8.88-10.48,12.78-1.19-.77-2.31-1.54-3.39-2.26l.11-.12c3.47-4,8.05-9.43,10.79-13.24C96.52,72.75,97.53,73.71,98.39,74.6Z" fill="#f4805d"/><path d="M154.53,80.25c-6.06,7.85,2.05,21.27,11.76,19.23,9.27-2,13.43-16.49,5.24-22.14a11.65,11.65,0,0,0-9.77-1.85A14.64,14.64,0,0,0,154.53,80.25Z" fill="#e16c58"/></g></svg>