<svg xmlns="http://www.w3.org/2000/svg" viewBox="0 0 279.49 777.68"><g style="isolation:isolate"><line x1="72.16" y1="500.66" x2="72.16" y2="7.48" fill="none" stroke-dasharray="0 32.85" stroke-linecap="round" stroke-linejoin="round" stroke-width="14.97" stroke="#617986"/><path d="M104.27,646.55a6.36,6.36,0,0,1,.61-.81c15.54-15.56,16.37-23.57,16.37-23.57-3-4.3-23.9,2-28.06-.74-6.28-4.06-6-15.76-6.89-22.32-3.45-25.31-.45-52,11.66-74.7,11.32-21.27,30.67-33.37,50.5-45.7.78-.49,1.48-2.57.75-4.33s-5.12-3.46-7.6-3.78c-4.67-.6-9.6-.32-14.31-.41-2.63-.05-5.26,0-7.88.17a143,143,0,0,0-28.07,4.81q-5.49,1.5-10.8,3.5C16.23,502.94-20.48,583.9,12.1,670.25S125.88,794.13,196.84,771c32.94-10.76,64.1-31,80.75-66.38,1-2.07,2.68-7,1.52-8.16-1.43-1.48-4.89.12-6.47.8-3.09,1.32-4.77,2-7.95,3-23.15,7.93-46.11,15.23-70.89,13.26-22.6-1.8-43.62-11-62-24-11.67-8.3-16.39-15.37-23.39-27.86C105.42,656.28,100.76,651.57,104.27,646.55Z" fill="#f7ce6d"/><path d="M234.62,742.63c-29.74,13.68-48.89,21.53-82.17,20.92-15.6-.29-40.15-4.81-54.6-11-13.13-5.61-25-14.16-35.9-23.32A273.81,273.81,0,0,1,15.67,679C50.31,759.12,128.33,793.33,196.84,771c29.75-9.71,58-27.24,75.47-56.57C260.64,723.24,247.8,736.57,234.62,742.63Z" fill="#e5e2e2" style="mix-blend-mode:multiply"/><path d="M80.55,676.67c.27,3.5,4.7,7.16,7.55,8.25a12.49,12.49,0,0,0,16.58-7.71" fill="none" stroke="#e6a12d" stroke-linecap="round" stroke-linejoin="round" stroke-width="4.05"/><path d="M55.4,617c7,5.74,20.2,3.92,26.66-4.38" fill="none" stroke="#e6a12d" stroke-linecap="round" stroke-linejoin="round" stroke-width="4.05"/><path d="M165.9,539.66c-2.39,1-7.32-.77-8.2-2.43-5.26-9.78-20.08-59.54-57.29-12.94-2.47,3.1-4.17,7.52-8.16,4.86-9.35-6.25-21.26-15-28.49-22-4.85-4.73-8.8-9.39-14.64-12.61a2,2,0,0,1-.36-.18c-.32-.18-.64-.34-1-.49a2.17,2.17,0,0,0-.51-.24l-.28-.14c0-.12,0-.22.08-.34a32.78,32.78,0,0,1,3.12-5.29l.08-.1c.59-.85,1.09-1.56,1.38-1.92,1.33-1.8,2.63-3.51,3.9-5.1a3.58,3.58,0,0,1,.27-.33c.33-.45.66-.85,1-1.27.67-.83,1.34-1.62,2-2.41.34-.39.66-.77,1-1.16,1-1.11,2-2.2,3-3.24A57,57,0,0,1,88.34,457c5.68-1.72,11.79-1.86,17.68-1.92,6.88-.11,13.56.16,20.06,2.65s12.21,6.33,17.69,10.4l.65.51c17.88,13.6,22.74,36.79,24.08,52.45C169.08,527.94,171.12,537.41,165.9,539.66Z" fill="#e16c58"/><path d="M149.06,473.05c-10.87-7.57-22.37-12.3-32.7-13.24-28.67-2.59-51.95,15.61-65.12,35.76l-2.12-1.08a2,2,0,0,1-.36-.18c-.32-.18-.64-.34-1-.49a2.17,2.17,0,0,0-.51-.24l-.28-.14c0-.12,0-.22.08-.34a16.14,16.14,0,0,1,3.12-5.29l.08-.1c1.11-1.42,2.25-2.75,3-3.87s1.46-2.1,2.26-3.15a3.58,3.58,0,0,1,.27-.33c.33-.45.66-.85,1-1.27.67-.83,1.34-1.62,2-2.41.34-.39.66-.77,1-1.16,1-1.11,2-2.2,3-3.24A57,57,0,0,1,88.34,457c5.68-1.72,11.79-1.86,17.68-1.92,6.88-.11,13.56.16,20.06,2.65s12.21,6.33,17.69,10.4l.65.51A46.22,46.22,0,0,1,149.06,473.05Z" fill="#927877" opacity="0.3" style="mix-blend-mode:screen"/><path d="M49.05,489.19a12.08,12.08,0,0,0-2,4.26c7,3.18,11.33,8.36,16.76,13.66,7.23,7,19.15,15.79,28.49,22,3.2,2.13,4.79-.39,6.68-3C85.49,511.32,67,498,49.05,489.19Z" fill="#e5e2e2" style="mix-blend-mode:multiply"/><path d="M91.29,544.66c-1.19-.75-2.3-1.48-3.38-2.18s-2.31-1.54-3.39-2.26c-2.09-1.4-4-2.74-5.83-4.06l-.51-.38c-.93-.67-1.85-1.33-2.77-2l-.5-.37C73,532,71,530.53,69,529c-1.06-.78-2.13-1.61-3.26-2.44-1.94-1.49-4-3.06-6.26-4.74-.28-.23-.57-.45-.87-.67l-.38-.27c-.58-.44-1.27-.93-2-1.47-.28-.21-.59-.4-.88-.62-1.66-1.16-3.61-2.51-5.58-3.91-1.11-.77-2.21-1.56-3.29-2.37-1.73-1.24-3.4-2.5-4.85-3.7-1.18-1-2.23-1.92-3.08-2.78a11.83,11.83,0,0,1-1-1.11c-2.29-2.83,2.71-8.08,5.36-11.58.94-1.27,2.64-1.45,4.75-.9a20.52,20.52,0,0,1,4,1.57A54.79,54.79,0,0,1,57,497.1c1.12.73,2.25,1.49,3.38,2.31,2.17,1.54,4.33,3.17,6.3,4.71l.92.74L69,506l.79.64c2.46,2,4.4,3.58,5.39,4.29l.8.59,3.27,2.38c1.9,1.42,3.88,2.92,5.88,4.45a4.82,4.82,0,0,0,.51.41c.91.73,1.79,1.41,2.67,2.12.19.13.37.29.55.42,2.34,1.9,4.57,3.79,6.54,5.55,1.1,1,2.11,1.95,3,2.85.4.37.73.75,1.09,1.1C102.81,534.42,94.22,542.69,91.29,544.66Z" fill="#e16c58"/><g style="mix-blend-mode:multiply"><path d="M48.81,514.16c-1.09-.76-2.2-1.56-3.28-2.37A106.48,106.48,0,0,1,56,496.39c1.11.74,2.24,1.49,3.37,2.31A100.26,100.26,0,0,0,48.81,514.16Z" fill="#e5e2e2"/></g><g style="mix-blend-mode:multiply"><path d="M58.64,521.14l-.38-.27c-.58-.44-1.27-.93-2-1.47-.28-.21-.59-.4-.88-.62A104.08,104.08,0,0,1,65.72,503.6c.61.41,1.23.82,1.86,1.26L69,506A97.45,97.45,0,0,0,58.64,521.14Z" fill="#e5e2e2"/></g><g style="mix-blend-mode:multiply"><path d="M78.18,535.78c-.93-.67-1.85-1.33-2.77-2l-.5-.37a106.37,106.37,0,0,1,10.24-15,4.82,4.82,0,0,0,.51.41c.91.73,1.79,1.41,2.67,2.12A100.28,100.28,0,0,0,78.18,535.78Z" fill="#e5e2e2"/></g><path d="M41.63,508.8c-1.18-1-2.23-1.92-3.08-2.78a126.66,126.66,0,0,1,9.13-13.59,20.52,20.52,0,0,1,4,1.57A109.65,109.65,0,0,0,41.63,508.8Z" fill="#f4805d"/><path d="M49.77,514.87c-1.11-.77-2.21-1.56-3.29-2.37A107,107,0,0,1,57,497.1c1.12.73,2.25,1.49,3.38,2.31A97.7,97.7,0,0,0,49.77,514.87Z" fill="#f4805d"/><path d="M59.51,521.81c-.4-.31-.82-.63-1.25-.94s-1.27-.93-2-1.47l0,0c3.14-4.87,7.34-11.39,10.39-15.23,1.11.88,2.18,1.72,3.15,2.52-2.92,3.66-7,10.11-10.12,14.9Z" fill="#f4805d"/><path d="M65.77,526.55l.07-.08c3.06-4.76,7.12-11.08,10.16-15l3.27,2.38c-2.91,3.67-7,10-10,14.76L69,529C68,528.21,66.9,527.38,65.77,526.55Z" fill="#f4805d"/><path d="M78.69,536.16c-1.12-.81-2.2-1.59-3.28-2.39,3.3-4.53,7.72-11.09,10.25-15l3.22,2.54C86.09,525.56,81.82,531.83,78.69,536.16Z" fill="#f4805d"/><path d="M98.39,529.7c-2.82,3.85-7.12,8.88-10.48,12.78-1.19-.78-2.31-1.54-3.39-2.26l.11-.12c3.47-4.05,8.05-9.43,10.79-13.25C96.52,527.85,97.53,528.8,98.39,529.7Z" fill="#f4805d"/><path d="M154.53,535.35c-6.06,7.85,2.05,21.27,11.76,19.23,9.27-2,13.43-16.49,5.24-22.14a11.65,11.65,0,0,0-9.77-1.85A14.58,14.58,0,0,0,154.53,535.35Z" fill="#e16c58"/></g></svg>