<svg xmlns="http://www.w3.org/2000/svg" viewBox="0 0 208.16 220.23"><g style="isolation:isolate"><path d="M110.23,118.62c-25.7,23.09-29.57,60.7-8.64,84s58.72,23.49,84.45.4,29.57-60.7,8.64-84S135.94,95.54,110.23,118.62Zm63.26,70.44c-12.64,11.45-29.6,18.77-45.69,12.16-16.84-6.93-27.15-25-23.31-42.93,2-9,7.85-23.2,14.87-29.5,19.52-17.52,54.06-15.47,66.58,4.74C198.35,153.53,189.64,174.42,173.49,189.06Z" fill="#f48aa4"/><path d="M181.48,198.7c-14.06,12.05-35.38,21.91-54.74,19.41,19.36,5.4,42.06.4,59.3-15.08,14-12.54,21.47-29.37,22.06-45.86C204.17,173.28,193.93,188,181.48,198.7Z" fill="#ece8e5" style="mix-blend-mode:multiply"/><path d="M116.6,194.18a37.69,37.69,0,0,1-12.11-35.89c2-9,7.85-23.2,14.87-29.5,18.62-16.72,50.89-15.61,64.71,2.08a30.76,30.76,0,0,1,13.76-8q-1.47-2-3.15-3.9c-20.93-23.3-58.74-23.48-84.45-.4s-29.57,60.7-8.64,84c1.13,1.26,2.33,2.44,3.55,3.57A50,50,0,0,1,116.6,194.18Z" fill="#e0ddda" style="mix-blend-mode:multiply"/><path d="M179.38,41.2c-18.18-18-44.16-18.86-61-.1-6.93,7.76-10,16.16-13.44,25.68a74.08,74.08,0,0,1-22.53,31.7,68.84,68.84,0,0,1-33.1,15.08c-11.13,1.7-24.23,9.75-30.68,20.8-7.81,13.42.72,35.78,9.43,47.19C44.74,203.36,77.36,198.72,99,188.8,138.61,170.62,229.49,90.8,179.38,41.2ZM57.31,163.71a10.72,10.72,0,1,1,.81-15.15A10.73,10.73,0,0,1,57.31,163.71Zm100.43-90.2a10.72,10.72,0,1,1,.82-15.15A10.71,10.71,0,0,1,157.74,73.51Z" fill="#f599b5"/><path d="M49.34,113.56c-11.13,1.7-24.23,9.75-30.68,20.8-7.81,13.42.72,35.78,9.43,47.19a37.15,37.15,0,0,0,13.23,10.87,73.81,73.81,0,0,1-14.18-20.79c-4.25-8.06-6.62-18.28-5.23-26.78,1.91-11.71,7.24-19.1,16.9-24.84,4.92-2.92,10.53-6.45,17.53-7.94A66.48,66.48,0,0,1,49.34,113.56Z" fill="#c0c3bb" opacity="0.3" style="mix-blend-mode:screen"/><path d="M179.38,41.2a48.55,48.55,0,0,0-18.23-11.57c9.11,6.93,16.36,18.76,20.06,27,7.77,17.47,1.92,36.64-7.29,52.37C163.4,127,149,142.56,133.76,156.6c-19.1,17.61-41.2,31.61-65.6,40.31A91.53,91.53,0,0,0,99,188.8C138.61,170.62,229.49,90.8,179.38,41.2Z" fill="#ece8e5" style="mix-blend-mode:multiply"/><path d="M133.65,108.88c-.8-10.71-12.66-17.5-20.08-23.54C91,66.94,92.28,33.94,73.62,13.16,41.29-22.84-7.09,23.25.87,53.32c7.74,29.2,34.85,36.24,53.92,46.54,20.23,11,22.74,36.34,40.66,43.59C107.44,148.31,135.06,128.12,133.65,108.88Z" fill="#f5cb98"/><path d="M73.62,13.16c-17.42-19.4-39.49-15-54.92-2,6.66-1.86,17-4.2,23.4-3.12,16.74,2.79,29.66,15.49,35.84,31,4.11,10.31,4,20,9.1,30,2.84,5.55,6.87,12.78,12,16.53,4.26,3.12,13.17,9.41,17.52,12.4,14,9.66,11.76,25.9,1.52,38.57,8.92-6.87,16.33-17.33,15.59-27.53-.8-10.71-12.66-17.5-20.08-23.54C91,66.94,92.28,33.94,73.62,13.16Z" fill="#ece8e5" style="mix-blend-mode:multiply"/><path d="M52.71,89c-1.21.38-3.05-.26-5.65-2.17-6.6-4.89-13.06-10-19.47-15.13-7.55-6.06-17-14.52-18.1-24.79-.63-6,1.74-13.48,4.85-18.55,6-9.89,23.38-17.71,30.48-4.63,5.49,10.09-3.49,15.4-3.3,27.48.15,8.9,8.8,16.72,11.28,22.7C54.72,78.48,58.94,87,52.71,89Z" fill="#c0c3bb" opacity="0.3" style="mix-blend-mode:screen"/></g></svg>